<svg width="120" height="120" viewBox="0 0 120 120" fill="none" xmlns="http://www.w3.org/2000/svg">
<rect x="2" y="2" width="116" height="116" rx="58" fill="#2C2C2C"/>
<path fill-rule="evenodd" clip-rule="evenodd" d="M64.9008 17.1159L63.8867 24.1835L65.2527 24.3795L66.2668 17.3119L68.975 17.7005L69.154 16.4533L62.3715 15.4801L62.1925 16.7273L64.9008 17.1159ZM48.2215 25.7904L46.2719 17.6198L47.2056 17.3969L52.8698 22.0045L51.5244 16.3664L52.8667 16.0461L54.8164 24.2167L53.8826 24.4395L48.2185 19.832L49.5639 25.47L48.2215 25.7904ZM40.2689 20.1971L43.7988 27.8195L45.051 27.2396L41.5212 19.6172L40.2689 20.1971ZM34.9607 34.105L30.1752 28.8061L28.1447 30.6398L27.3002 29.7047L32.3854 25.1123L33.2299 26.0474L31.1994 27.8811L35.9848 33.1801L34.9607 34.105ZM21.7611 37.1965L28.6432 42.0129L29.1867 41.2362L29.4344 40.8823L31.8839 37.3822L30.8516 36.6598L28.4021 40.1598L26.4162 38.7699L28.6317 35.6042L27.6387 34.9093L25.4232 38.075L23.5847 36.7884L25.9997 33.3375L24.9674 32.615L22.5524 36.0659L22.3047 36.4198L21.7611 37.1965ZM26.2646 47.7486C26.0683 48.2901 25.7777 48.7634 25.3926 49.1684C25.0076 49.5734 24.5653 49.8897 24.0659 50.1171C23.559 50.3419 23.023 50.4709 22.4578 50.5043C21.8878 50.5275 21.3207 50.4369 20.7566 50.2324C20.1925 50.028 19.7028 49.7356 19.2876 49.3554C18.875 48.9676 18.5499 48.5264 18.3122 48.0318C18.0697 47.527 17.9355 46.9933 17.9096 46.4308C17.8789 45.8581 17.9672 45.2859 18.1743 44.7143C18.4006 44.0901 18.7308 43.5545 19.165 43.1078C19.5992 42.661 20.1037 42.3375 20.6783 42.1373L21.2393 43.3362C20.8239 43.4494 20.4588 43.6702 20.144 43.9987C19.8218 44.3243 19.5789 44.7128 19.4153 45.1641C19.2191 45.7056 19.1663 46.2268 19.2571 46.7277C19.343 47.2184 19.5557 47.6529 19.8951 48.0312C20.2345 48.4094 20.6825 48.6994 21.2391 48.9012C21.7957 49.1029 22.3292 49.1686 22.8397 49.0983C23.3454 49.0178 23.7895 48.8256 24.1719 48.5218C24.5543 48.2179 24.8355 47.8177 25.0154 47.3213C25.2062 46.7949 25.2757 46.3095 25.224 45.8653C25.1675 45.4108 24.988 45.0139 24.6855 44.6746C24.4911 44.46 24.2483 44.2731 23.957 44.1138L23.0442 46.6324L21.8596 46.2031L23.2743 42.2996L23.4548 42.365C24.395 42.7057 25.1159 43.1585 25.6175 43.7232C26.1218 44.2804 26.4232 44.9044 26.5217 45.5953C26.6201 46.2862 26.5344 47.0039 26.2646 47.7486ZM20.6879 60.1588C20.7999 59.9668 20.8559 59.7468 20.8559 59.4988C20.8559 59.2508 20.7999 59.0348 20.6879 58.8508C20.5759 58.6588 20.4239 58.5107 20.2319 58.4068C20.0319 58.2948 19.8159 58.2388 19.5839 58.2388C19.3519 58.2388 19.1399 58.2948 18.9479 58.4068C18.7559 58.5107 18.6039 58.6588 18.4919 58.8508C18.3719 59.0348 18.3119 59.2508 18.3119 59.4988C18.3119 59.7468 18.3719 59.9668 18.4919 60.1588C18.6039 60.3508 18.7559 60.5028 18.9479 60.6148C19.1399 60.7188 19.3519 60.7708 19.5839 60.7708C19.8159 60.7708 20.0319 60.7188 20.2319 60.6148C20.4239 60.5028 20.5759 60.3508 20.6879 60.1588ZM27.216 75.2614L19.308 78.0939L18.8426 76.7947L22.0623 75.6415L20.727 71.9134L17.5073 73.0666L17.042 71.7674L24.95 68.935L25.4154 70.2341L21.9132 71.4885L23.2486 75.2166L26.7507 73.9622L27.216 75.2614ZM93.5749 72.6827C93.7773 72.1434 94.0732 71.6734 94.4628 71.2727C94.8524 70.872 95.2982 70.5608 95.8001 70.339C96.3095 70.12 96.847 69.997 97.4125 69.9699C97.9828 69.9532 98.5488 70.0502 99.1105 70.261C99.6723 70.4718 100.159 70.7696 100.57 71.1545C100.978 71.5469 101.298 71.9917 101.53 72.489C101.767 72.9965 101.895 73.5317 101.915 74.0944C101.939 74.6674 101.844 75.2386 101.63 75.8078C101.397 76.4295 101.061 76.9613 100.622 77.4031C100.183 77.845 99.6745 78.1628 99.0977 78.3565L98.5502 77.1513C98.9669 77.0428 99.3344 76.8261 99.6528 76.5013C99.9787 76.1792 100.226 75.7935 100.395 75.3441C100.597 74.8048 100.656 74.2842 100.57 73.7823C100.49 73.2907 100.282 72.8539 99.9472 72.4718C99.612 72.0897 99.1673 71.7947 98.6131 71.5867C98.0588 71.3788 97.526 71.307 97.0148 71.3715C96.5082 71.4463 96.062 71.6335 95.6762 71.9331C95.2904 72.2326 95.0047 72.6296 94.8192 73.1239C94.6225 73.6482 94.5475 74.1327 94.5942 74.5775C94.6456 75.0326 94.8206 75.4315 95.1193 75.7742C95.3112 75.9909 95.5519 76.1806 95.8414 76.3431L96.7826 73.835L97.9622 74.2776L96.5036 78.165L96.3239 78.0975C95.3876 77.7462 94.6719 77.2854 94.1767 76.7151C93.6786 76.1522 93.3843 75.5248 93.2936 74.8329C93.2029 74.1409 93.2967 73.4242 93.5749 72.6827ZM91.0875 78.4271L97.9164 83.3186L97.3643 84.0893L97.1128 84.4405L94.66 87.8647L93.6357 87.1309L96.0884 83.7068L94.2642 82.4L92.0141 85.5413L91.0288 84.8355L93.2789 81.6942L91.3083 80.2827L88.8206 83.7556L87.7962 83.0219L90.2839 79.549L90.5355 79.1978L91.0875 78.4271ZM89.4822 91.513L84.7354 86.1794L83.7045 87.0968L88.4513 92.4304L86.4075 94.2494L87.2452 95.1906L92.3636 90.6353L91.526 89.694L89.4822 91.513ZM75.875 92.3398L79.348 99.9882L78.0915 100.559L74.6185 92.9103L75.875 92.3398ZM73.1449 102.556L71.2887 94.3636L69.9428 94.6685L71.2237 100.322L65.6125 95.6497L64.6763 95.8618L66.5325 104.054L67.8784 103.749L66.5975 98.0961L72.2086 102.768L73.1449 102.556ZM55.5981 95.7536L54.5028 102.809L57.2064 103.229L57.0131 104.474L50.2422 103.423L50.4355 102.178L53.1391 102.597L54.2345 95.5419L55.5981 95.7536ZM46.8272 93.7819C46.4417 93.3672 45.9744 93.0389 45.4253 92.7969C44.8836 92.5582 44.3333 92.4381 43.7745 92.4366C43.2083 92.4319 42.6705 92.5315 42.161 92.7353C41.6442 92.936 41.1821 93.2307 40.7748 93.6194C40.3569 94.0122 40.027 94.4832 39.785 95.0322C39.5431 95.5813 39.4197 96.1389 39.415 96.7051C39.3997 97.2754 39.4924 97.8189 39.6931 98.3357C39.8905 98.8598 40.1836 99.3255 40.5723 99.7329C40.9505 100.144 41.4141 100.471 41.9632 100.713C42.5122 100.955 43.0699 101.078 43.636 101.083C44.1917 101.092 44.7295 100.992 45.2495 100.784C45.759 100.58 46.221 100.286 46.6357 99.9002C47.0431 99.5114 47.3677 99.0425 47.6097 98.4935C47.8516 97.9444 47.9802 97.3848 47.9955 96.8145C48.0002 96.2483 47.9038 95.7032 47.7064 95.1791C47.5058 94.6623 47.2127 94.1965 46.8272 93.7819ZM43.3985 93.7659C43.8897 93.7026 44.3952 93.7855 44.915 94.0145C45.2957 94.1823 45.618 94.403 45.8821 94.6767C46.1429 94.9578 46.3372 95.2707 46.465 95.6155C46.5855 95.9571 46.6374 96.3253 46.6208 96.7201C46.5936 97.119 46.4913 97.5198 46.3139 97.9225C46.0752 98.4642 45.7557 98.8916 45.3554 99.2048C44.9478 99.5148 44.5 99.6977 44.012 99.7537C43.5134 99.8138 43.0079 99.7309 42.4955 99.5051C42.1075 99.3341 41.7851 99.1133 41.5284 98.8428C41.2644 98.5691 41.07 98.2562 40.9455 97.9041C40.8177 97.5592 40.7657 97.191 40.7897 96.7994C40.8031 96.4119 40.8985 96.0169 41.0759 95.6142C41.3147 95.0725 41.6394 94.643 42.0503 94.3257C42.4505 94.0126 42.9 93.8259 43.3985 93.7659ZM36.7356 87.3162C37.2167 87.726 37.5558 88.2039 37.7528 88.7499C37.9498 89.296 38.0002 89.8537 37.9039 90.4233C37.7964 90.9937 37.5378 91.5195 37.128 92.0007L33.7513 95.9657L32.7007 95.071L36.0696 91.1151C36.3341 90.8045 36.501 90.479 36.5702 90.1386C36.6281 89.7991 36.5989 89.4695 36.4824 89.1497C36.3608 88.8359 36.1599 88.5598 35.8797 88.3212C35.5935 88.0774 35.2888 87.923 34.9658 87.8581C34.6377 87.7993 34.3137 87.8281 33.9938 87.9445C33.6688 88.067 33.3767 88.2806 33.1173 88.5851L29.7406 92.5501L28.69 91.6554L32.0745 87.6812C32.4842 87.2001 32.9595 86.864 33.5004 86.6731C34.0412 86.4823 34.5938 86.438 35.1582 86.5403C35.7225 86.6426 36.2483 86.9013 36.7356 87.3162ZM30.5196 81.0245C30.4004 80.4741 30.1675 79.9493 29.8207 79.4499C29.4374 78.8979 29.0054 78.4722 28.5249 78.1729C28.0443 77.8735 27.5335 77.6779 26.9925 77.5861L26.7575 78.8888C27.1224 78.9374 27.4732 79.0639 27.81 79.2683C28.1356 79.4707 28.4444 79.7822 28.7365 80.2028C28.9737 80.5445 29.1313 80.8977 29.2093 81.2624C29.2872 81.627 29.2907 81.9898 29.2199 82.3507C29.1379 82.7095 28.9846 83.0497 28.7599 83.3713C28.5352 83.6929 28.2422 83.9792 27.8808 84.2302C27.5193 84.4812 27.1487 84.6557 26.7689 84.7539C26.389 84.8521 26.02 84.8747 25.6617 84.8215C25.2922 84.7664 24.9503 84.6386 24.6358 84.4382C24.3213 84.2378 24.0454 83.9667 23.8081 83.625C23.5389 83.2373 23.3664 82.8556 23.2904 82.4797C23.2099 82.0973 23.2107 81.7267 23.2927 81.3679L21.99 81.1329C21.8936 81.6674 21.8948 82.2022 21.9938 82.7373C22.0927 83.2725 22.3361 83.8194 22.7239 84.3779C23.0707 84.8773 23.4844 85.2767 23.965 85.576C24.441 85.8688 24.9495 86.0611 25.4905 86.153C26.0315 86.2448 26.5782 86.2255 27.1305 86.0952C27.6763 85.9695 28.1956 85.7355 28.6884 85.3933C29.1812 85.0511 29.5852 84.6439 29.9002 84.1719C30.2087 83.7045 30.4177 83.199 30.5272 82.6554C30.6302 82.1164 30.6277 81.5728 30.5196 81.0245ZM74.1678 27.0241C73.617 26.7862 73.1472 26.4614 72.7586 26.0496C72.37 25.6378 72.0735 25.1743 71.869 24.659C71.6677 24.1364 71.5673 23.592 71.5678 23.0258C71.5788 22.4554 71.7032 21.8948 71.941 21.344C72.1789 20.7931 72.5 20.3218 72.9045 19.93C73.3163 19.5414 73.7761 19.2433 74.2841 19.0357C74.8025 18.8238 75.3396 18.7202 75.8952 18.7249C76.4614 18.7254 77.02 18.8446 77.5708 19.0824C78.1216 19.3203 78.5877 19.6435 78.969 20.0521C79.3607 20.4565 79.6573 20.9201 79.8586 21.4427C80.0631 21.958 80.1598 22.5008 80.1488 23.0712C80.1483 23.6374 80.0291 24.1959 79.7913 24.7467C79.5534 25.2976 79.227 25.771 78.8121 26.1669C78.4076 26.5587 77.9478 26.8568 77.4325 27.0613C76.9246 27.269 76.3875 27.3725 75.8213 27.372C75.2625 27.3747 74.7113 27.2587 74.1678 27.0241ZM74.669 25.8027C75.1905 26.0279 75.6966 26.107 76.1873 26.04C76.6854 25.9762 77.1334 25.7863 77.5314 25.4701C77.9398 25.1498 78.2614 24.7179 78.4961 24.1744C78.6705 23.7704 78.763 23.3747 78.7735 22.9871C78.7945 22.5953 78.7398 22.2275 78.6094 21.8836C78.4822 21.5324 78.2856 21.221 78.0195 20.9492C77.7608 20.6807 77.4368 20.4623 77.0475 20.2943C76.5334 20.0723 76.0273 19.9932 75.5292 20.0569C75.0416 20.1165 74.5952 20.3028 74.1899 20.6158C73.792 20.932 73.4757 21.3618 73.241 21.9053C73.0666 22.3092 72.9673 22.7108 72.9431 23.1099C72.9294 23.5048 72.9841 23.8726 73.1071 24.2133C73.2375 24.5572 73.4341 24.8686 73.697 25.1477C73.9631 25.4195 74.2871 25.6378 74.669 25.8027ZM81.8699 30.9567C82.0729 31.5005 82.4171 31.9747 82.9027 32.3792C83.3945 32.7888 83.9231 33.0417 84.4885 33.1378C85.0539 33.234 85.606 33.1837 86.1448 32.9869C86.6835 32.7901 87.1551 32.4489 87.5596 31.9633L90.9005 27.9524L89.8401 27.0692L86.5069 31.0709C86.2509 31.3782 85.9611 31.5949 85.6375 31.721C85.3189 31.8409 84.9953 31.8732 84.6664 31.818C84.3428 31.7566 84.0365 31.6056 83.7475 31.3649C83.4648 31.1294 83.2609 30.8555 83.1359 30.5431C83.0159 30.2246 82.9831 29.8953 83.0373 29.5552C83.1028 29.2141 83.2661 28.8868 83.5272 28.5733L86.8527 24.5808L85.7924 23.6976L82.4592 27.6993C82.0547 28.1849 81.8018 28.7135 81.7005 29.2851C81.6105 29.8556 81.667 30.4128 81.8699 30.9567ZM89.979 40.2473C89.6285 39.7505 89.3917 39.2273 89.2685 38.6779C89.1565 38.1304 89.15 37.5868 89.249 37.047C89.3545 36.5027 89.5598 35.9957 89.8649 35.526C90.1765 35.0517 90.5774 34.6416 91.0678 34.2958C91.5581 33.95 92.0756 33.7122 92.6205 33.5825C93.1718 33.4481 93.7183 33.4249 94.26 33.5128C94.8017 33.6006 95.3116 33.7892 95.7897 34.0785C96.2725 34.3743 96.6891 34.7707 97.0395 35.2675C97.4314 35.8232 97.6788 36.3683 97.7816 36.9027C97.8845 37.4371 97.8896 37.9719 97.7972 38.5071L96.4928 38.2816C96.5721 37.9222 96.5702 37.5516 96.4869 37.1698C96.4082 36.7945 96.2329 36.414 95.9608 36.0283C95.7211 35.6884 95.4432 35.4193 95.1273 35.2212C94.8113 35.0231 94.4684 34.8978 94.0986 34.8454C93.7399 34.7949 93.371 34.8201 92.9919 34.9211C92.6128 35.0221 92.2435 35.1994 91.8839 35.453C91.5243 35.7066 91.2334 35.995 91.011 36.3182C90.7887 36.6415 90.6379 36.9828 90.5585 37.3422C90.4903 37.7036 90.4965 38.0663 90.5771 38.4304C90.6577 38.7946 90.8179 39.1466 91.0577 39.4865C91.3528 39.9049 91.6639 40.2142 91.991 40.4142C92.3292 40.6162 92.6809 40.7401 93.0462 40.786L92.8207 42.0904C92.2791 42.0025 91.7669 41.8107 91.2841 41.5148C90.8013 41.219 90.3663 40.7965 89.979 40.2473ZM100.534 41.5385L92.647 44.4303L93.1221 45.7259L96.6147 44.4453L97.978 48.1632L94.4854 49.4439L94.9605 50.7395L102.847 47.8477L102.372 46.552L99.161 47.7294L97.7977 44.0115L101.009 42.8341L100.534 41.5385ZM99.1472 59.882C99.1434 59.6341 99.196 59.4132 99.305 59.2195C99.414 59.0258 99.5637 58.8715 99.7539 58.7565C99.9523 58.6495 100.167 58.5941 100.399 58.5906C100.631 58.587 100.844 58.6357 101.038 58.7367C101.231 58.8457 101.386 58.9954 101.501 59.1856C101.624 59.3758 101.687 59.5948 101.691 59.8428C101.695 60.0907 101.638 60.3076 101.521 60.4935C101.412 60.6872 101.262 60.8375 101.072 60.9445C100.882 61.0594 100.67 61.1187 100.439 61.1223C100.207 61.1258 99.9897 61.0732 99.788 60.9643C99.5944 60.8633 99.4401 60.7176 99.3252 60.5274C99.2104 60.3451 99.151 60.13 99.1472 59.882ZM54.667 52.5834H66.6663H66.667C67.0812 52.5834 67.417 52.9192 67.417 53.3334V65.3334C67.417 65.7476 67.0812 66.0834 66.667 66.0834C66.2528 66.0834 65.917 65.7476 65.917 65.3334V55.1434L53.8633 67.197C53.5704 67.4899 53.0956 67.4899 52.8027 67.197C52.5098 66.9041 52.5098 66.4293 52.8027 66.1364L64.8557 54.0834H54.667C54.2528 54.0834 53.917 53.7476 53.917 53.3334C53.917 52.9192 54.2528 52.5834 54.667 52.5834Z" fill="white"/>
<rect x="2" y="2" width="116" height="116" rx="58" stroke="white" stroke-width="4"/>
</svg>
